<svg width="100" height="98" viewBox="0 0 100 98" fill="none" xmlns="http://www.w3.org/2000/svg">
    <path d="M50 0C22.3875 0 0 22.2822 0 49.7649C0 73.0839 15.8216 94.0425 37.8833 97.9954C38.5862 98.1213 22.5 92.119 22.5 91.1527C22.5 89.9086 23.75 89.9086 25 88.6645C26.6549 87.0173 26.25 86.4043 26.25 85.5542C26.25 84.9321 26.25 81.731 25.625 80.5777C23.9869 77.5548 20.5492 78.1649 21.875 76.8453C25 73.735 25.625 71.8688 25.625 69.3806C25.625 66.2703 20.625 63.16 20.625 61.9158C20.625 60.6717 23.2792 60.5183 25 58.8055C26.25 57.5614 26.875 55.6952 25 51.9629C23.125 48.2305 19.375 51.9629 17.3 51.3408C11.032 49.4617 15.625 45.1202 17.3 43.6355C17.3 43.0135 17.5 44.4981 13.125 43.254C9.11331 42.1132 9.14677 36.5418 20 33.9231C21.9208 33.4596 13.75 25.8363 22.5 21.4818C30.1035 17.698 34.375 29.5686 36.25 29.5686C40.6694 29.5686 53.75 30.6682 53.75 28.3245C53.75 25.9809 53.1917 18.9936 57.5 18.9936C59.5865 18.9936 62.6375 19.8238 64.375 22.1039C66.2321 24.5409 66.7667 28.4531 68.75 28.9466C71.25 29.5686 72.5221 29.8018 77.5 32.679C77.5 32.679 80 31.1031 83.75 31.7251C86.8325 32.2365 90.625 34.8354 90.625 40.434C90.625 46.6546 83.75 48.5208 83.125 48.5208C82.5 49.1429 82.5 49.4746 81.25 51.9629C76.2971 61.8221 63.0121 60.3542 57.5 59.4276C51.9879 58.501 56.875 61.6255 56.25 66.2703C54.8089 76.9797 55.625 83.688 55.625 93.9313C55.625 96.2156 55.8926 98.1057 56.25 97.9954C75.9687 91.9076 100 71.479 100 49.7649C100 22.2822 77.6125 0 50 0Z" fill="black"/>
</svg>
